<svg width="18" height="18" viewBox="0 0 18 18" fill="none" xmlns="http://www.w3.org/2000/svg">
<g id="pen">
<path id="Stroke 1 (Stroke)" fill-rule="evenodd" clip-rule="evenodd" d="M12.3788 2.4083C12.8196 1.96742 13.5333 1.96742 13.9742 2.4083L16.6718 5.10595C17.1127 5.54683 17.1127 6.2605 16.6718 6.70139L7.67596 15.6973C7.59335 15.7799 7.48616 15.8335 7.37049 15.85L3.25285 16.4382C3.08459 16.4623 2.91483 16.4057 2.79464 16.2855C2.67446 16.1653 2.61787 15.9956 2.64191 15.8273L3.23014 11.7097C3.24667 11.594 3.30026 11.4868 3.38288 11.4042L12.3788 2.4083ZM13.2105 3.17197C13.1914 3.15286 13.1616 3.15286 13.1424 3.17197L4.27383 12.0406L3.81288 15.2673L7.03957 14.8063L15.9082 5.93771C15.9273 5.91859 15.9273 5.88874 15.9082 5.86962L13.2105 3.17197Z" fill="#9FA6B2"/>
<path id="Stroke 3 (Stroke)" fill-rule="evenodd" clip-rule="evenodd" d="M15.3229 3.75704C15.5338 3.96792 15.5338 4.30983 15.3229 4.52071L8.26406 11.5795C8.05318 11.7904 7.71127 11.7904 7.50039 11.5795C7.2895 11.3687 7.2895 11.0267 7.50039 10.8159L14.5592 3.75704C14.7701 3.54616 15.112 3.54616 15.3229 3.75704Z" fill="#9FA6B2"/>
<path id="Stroke 5 (Stroke)" fill-rule="evenodd" clip-rule="evenodd" d="M3.38299 11.4043C3.59387 11.1934 3.93578 11.1934 4.14666 11.4043L7.67607 14.9337C7.88695 15.1446 7.88696 15.4865 7.67607 15.6973C7.46519 15.9082 7.12328 15.9082 6.9124 15.6973L3.38299 12.1679C3.1721 11.957 3.1721 11.6151 3.38299 11.4043Z" fill="#9FA6B2"/>
</g>
</svg>
